<svg xmlns="http://www.w3.org/2000/svg" width="2194.968" height="729" viewBox="0 0 2194.968 729">
  <metadata><?xpacket begin="﻿" id="W5M0MpCehiHzreSzNTczkc9d"?>
<x:xmpmeta xmlns:x="adobe:ns:meta/" x:xmptk="Adobe XMP Core 5.6-c138 79.159824, 2016/09/14-01:09:01        ">
   <rdf:RDF xmlns:rdf="http://www.w3.org/1999/02/22-rdf-syntax-ns#">
      <rdf:Description rdf:about=""/>
   </rdf:RDF>
</x:xmpmeta>
                                                                                                    
                                                                                                    
                                                                                                    
                                                                                                    
                                                                                                    
                                                                                                    
                                                                                                    
                                                                                                    
                                                                                                    
                                                                                                    
                                                                                                    
                                                                                                    
                                                                                                    
                                                                                                    
                                                                                                    
                                                                                                    
                                                                                                    
                                                                                                    
                                                                                                    
                                                                                                    
                           
<?xpacket end="w"?></metadata>
<defs>
    <style>
      .cls-1 {
        fill: #222;
        fill-rule: evenodd;
      }
    </style>
  </defs>
  <path id="Jeni." class="cls-1" d="M237.572,772.183q64.992,0,120-31.5,54.984-31.5,87-84.5,31.992-52.992,32-113v-420q0-27-17-44-17.016-16.992-45-17-25.008,0-44,17.5-19.008,17.508-19,43.5v420q0,28.008-16,53.5a118.066,118.066,0,0,1-42.5,40.5q-26.508,15-55.5,15-25.008,0-45-7.5-20.016-7.5-39-25.5-30-30-56-30-20.016,0-39,17.5-19.008,17.508-19,41.5,0,17.016,12,35,30.984,42,80,65.5,48.984,23.486,106,23.5h0Zm878.988-290q0-70.992-35-132-35.025-60.984-93.5-97-58.5-36-124.5-36-67.007,0-126,34.5-59.014,34.5-95,99.5-36,65.016-36,151,0,77.016,34,138.5,33.986,61.5,96.5,96.5,62.486,35.016,146.5,35a293.327,293.327,0,0,0,95-16q47-15.984,75-39,27.975-21.984,28-49,0-19.992-15-35a49.1,49.1,0,0,0-36-15q-16,0-34,9-5.014,3-18.5,11.5t-36.5,16q-23.014,7.5-64,7.5-54,0-97-33.5t-55-92.5h330a63.617,63.617,0,0,0,42-15q18-15,19-39h0Zm-253-155q46.993,0,84,30,36.986,30,41,72v7h-262q21-108.984,137-109h0Zm658.992-110q-52.02,0-95.5,26-43.5,26.016-70.5,62v-17q0-25.992-17-43.5-17.025-17.484-43-17.5-26.025,0-43,17.5-17.025,17.508-17,43.5v413q0,26.016,17,43.5,16.98,17.508,43,17.5,25.98,0,43-17.5,16.98-17.484,17-43.5v-256q0-51,33-84.5t91-33.5q55.98,0,79,31.5,22.98,31.5,23,86.5v256q0,26.016,17,43.5,16.98,17.508,43,17.5,25.98,0,43-17.5,16.98-17.484,17-43.5v-256q0-106.992-39-167.5-39-60.492-141-60.5h0Zm442.99,484v-413q0-25.992-17-43.5-17.025-17.484-43-17.5-26.025,0-43,17.5-17.025,17.508-17,43.5v413q0,26.016,17,43.5,16.995,17.508,43,17.5t43-17.5q16.995-17.484,17-43.5h0Zm-61-539q34.995,0,49.5-10.5,14.475-10.5,14.5-39.5v-19q0-27.984-14-39-14.025-10.992-49-11-33,0-48,11-15,11.016-15,39v19q0,28.008,14,39,13.995,11.016,48,11h0Zm256.99,599h13q28.995,0,44.5-15.5t15.5-44.5v-17q0-28.992-15.5-44.5-15.51-15.492-44.5-15.5h-13q-29.01,0-44.5,15.5-15.51,15.516-15.5,44.5v17q0,29.016,15.5,44.5,15.495,15.516,44.5,15.5h0Z" transform="translate(-39.563 -43.188)"/>
</svg>
