<svg xmlns="http://www.w3.org/2000/svg" width="668" height="466" viewBox="0 0 668 466">
  <metadata><?xpacket begin="﻿" id="W5M0MpCehiHzreSzNTczkc9d"?>
<x:xmpmeta xmlns:x="adobe:ns:meta/" x:xmptk="Adobe XMP Core 5.6-c138 79.159824, 2016/09/14-01:09:01        ">
   <rdf:RDF xmlns:rdf="http://www.w3.org/1999/02/22-rdf-syntax-ns#">
      <rdf:Description rdf:about=""/>
   </rdf:RDF>
</x:xmpmeta>
                                                                                                    
                                                                                                    
                                                                                                    
                                                                                                    
                                                                                                    
                                                                                                    
                                                                                                    
                                                                                                    
                                                                                                    
                                                                                                    
                                                                                                    
                                                                                                    
                                                                                                    
                                                                                                    
                                                                                                    
                                                                                                    
                                                                                                    
                                                                                                    
                                                                                                    
                                                                                                    
                           
<?xpacket end="w"?></metadata>
<defs>
    <style>
      .cls-1 {
        fill: #222;
        fill-rule: evenodd;
      }
    </style>
  </defs>
  <path id="JC" class="cls-1" d="M79.113,331.563q14.473-15.615,14.473-39.736V18.116H75.3V291.827q0,16.758-9.141,26.914a29.193,29.193,0,0,1-22.6,10.156H12.336v18.281H43.566Q64.638,347.178,79.113,331.563Zm25.771,25.264q25.261-26.91,25.264-65V18.116H111.867V291.827q0,30.468-19.932,52.05T43.566,365.459H12.336v18.282H43.566Q79.617,383.741,104.884,356.827Zm0.635,46.211a124.135,124.135,0,0,0,44.815-46.846,130.69,130.69,0,0,0,16.377-64.365V18.116H148.429V291.827q0,45.7-30.595,77.949T43.566,402.022H12.336V420.3H43.566A117.156,117.156,0,0,0,105.519,403.038Zm0.127,40.752A160.1,160.1,0,0,0,156.681,408.5a166.143,166.143,0,0,0,34.024-52.686,166.159,166.159,0,0,0,12.568-63.984V18.116H184.992V291.827A148.149,148.149,0,0,1,173.82,348.7a148.022,148.022,0,0,1-30.088,46.845,142.183,142.183,0,0,1-45.068,31.358,133.6,133.6,0,0,1-55.1,11.679H12.336v18.282H43.566A151.921,151.921,0,0,0,105.646,443.79Zm429.98-320.176a118.3,118.3,0,0,0-102.2-4.7,117.334,117.334,0,0,0-63.35,63.349,117.734,117.734,0,0,0,0,92.168,117.34,117.34,0,0,0,63.35,63.35,118.265,118.265,0,0,0,101.943-4.571,117.8,117.8,0,0,0,42.149-37.832l-14.727-10.664a99.837,99.837,0,0,1-35.674,32.246A98.106,98.106,0,0,1,479.513,328.9q-41.644,0-71.094-29.453T378.966,228.35q0-41.638,29.453-71.094T479.513,127.8a100.05,100.05,0,0,1,83.281,43.926l14.981-9.9A118.09,118.09,0,0,0,535.626,123.614Zm17.139-32.373a156.12,156.12,0,0,0-151.2,2.539A153.954,153.954,0,0,0,344.943,150.4a156.322,156.322,0,0,0,0,155.9,153.915,153.915,0,0,0,56.621,56.621,156.115,156.115,0,0,0,151.2,2.539,153.9,153.9,0,0,0,55.224-49.765l-14.98-10.41a136.84,136.84,0,0,1-48.75,43.925A137.471,137.471,0,0,1,410.7,347.051a136.872,136.872,0,0,1-49.892-49.892,137.8,137.8,0,0,1,0-137.617A136.935,136.935,0,0,1,410.7,109.649a137.683,137.683,0,0,1,133.428-2.285,136.967,136.967,0,0,1,48.623,43.545l15.234-9.9A153.935,153.935,0,0,0,552.765,91.241Zm17.392-32.119A187.146,187.146,0,0,0,479.513,36.4q-52.053,0-96.231,25.772a191.211,191.211,0,0,0-69.951,69.952q-25.773,44.18-25.771,96.23t25.771,96.231a191.184,191.184,0,0,0,69.951,69.951q44.181,25.773,96.231,25.771a187.579,187.579,0,0,0,90.264-22.47,190.961,190.961,0,0,0,68.173-61.065L623.224,325.85a174.151,174.151,0,0,1-61.7,55.606,169,169,0,0,1-82.012,20.566,170.84,170.84,0,0,1-67.539-13.711,169.479,169.479,0,0,1-92.422-92.422,173.2,173.2,0,0,1,0-135.078,169.486,169.486,0,0,1,92.422-92.422A173.776,173.776,0,0,1,561.4,75.118,172.73,172.73,0,0,1,623.224,130.6l15.234-9.9A192.034,192.034,0,0,0,570.157,59.122Zm17.012-32.373Q537.4-.162,479.513-0.166a222.613,222.613,0,0,0-88.74,18.154Q348.5,36.145,317.9,66.739t-48.75,72.871a225.954,225.954,0,0,0,0,177.48q18.15,42.276,48.75,72.871t72.871,48.75a222.6,222.6,0,0,0,88.74,18.155q57.635,0,107.4-26.787a228.832,228.832,0,0,0,81.25-72.491l-14.726-11.171a210.77,210.77,0,0,1-74.9,67.285,209.116,209.116,0,0,1-180.654,8.252q-38.979-16.627-67.158-44.815t-44.815-67.158a208.653,208.653,0,0,1,0-163.262q16.628-38.971,44.815-67.158t67.158-44.814a209.873,209.873,0,0,1,180.527,8,208.865,208.865,0,0,1,74.776,67.031l15.234-9.9A228.205,228.205,0,0,0,587.169,26.749Z"/>
</svg>
